<?xml version="1.0" standalone="no"?>
<!DOCTYPE svg PUBLIC "-//W3C//DTD SVG 20010904//EN"
 "http://www.w3.org/TR/2001/REC-SVG-20010904/DTD/svg10.dtd">
<svg version="1.0" xmlns="http://www.w3.org/2000/svg"
 width="340.000000pt" height="733.000000pt" viewBox="0 0 340.000000 733.000000"
 preserveAspectRatio="xMidYMid meet">

<g transform="translate(0.000000,733.000000) scale(0.100000,-0.100000)"
fill="#000000" stroke="none">
<path d="M1160 4533 c-160 -27 -325 -146 -407 -293 -70 -127 -78 -160 -77
-315 1 -124 4 -149 28 -220 41 -122 117 -225 217 -296 19 -13 40 -29 47 -36
13 -12 27 -17 45 -14 4 0 7 -3 7 -8 0 -5 8 -11 19 -14 12 -3 23 4 35 24 10 16
14 29 10 29 -3 0 -1 6 5 14 7 8 20 13 30 11 10 -2 24 1 32 6 11 8 11 9 -3 7
-9 -2 -24 6 -32 17 -12 16 -17 18 -27 8 -7 -7 -17 -13 -22 -13 -5 0 -1 7 7 16
15 14 14 18 -9 36 -14 10 -29 17 -35 13 -6 -3 -7 0 -4 9 3 9 1 16 -5 16 -6 0
-11 6 -11 13 0 7 -9 18 -20 25 -11 7 -20 19 -20 26 0 8 -4 16 -8 18 -11 4 -66
120 -82 172 -9 26 -11 73 -7 141 7 117 18 174 46 230 22 46 105 156 127 168 8
5 11 14 8 20 -4 7 -4 9 0 5 4 -3 24 5 44 18 19 14 46 27 59 30 13 4 23 11 23
17 0 6 3 8 6 4 3 -3 19 -1 35 5 22 8 28 15 24 27 -4 9 -9 28 -12 44 -5 23 -2
27 18 28 22 0 23 1 4 9 -21 9 -53 10 -95 3z m75 -93 c-3 -5 -16 -10 -28 -10
-18 0 -19 2 -7 10 20 13 43 13 35 0z m-376 -511 c-2 -26 -6 -46 -11 -43 -4 3
-8 -1 -8 -10 0 -8 6 -17 13 -20 10 -5 10 -7 0 -12 -7 -3 -13 -13 -13 -22 -1
-9 -7 -2 -15 17 -8 18 -13 43 -11 55 2 11 1 15 -1 9 -3 -7 -13 -13 -24 -13
-18 0 -19 1 -3 25 9 14 20 22 25 19 5 -3 9 6 9 19 0 29 7 37 26 30 11 -4 14
-19 13 -54z m255 -495 c3 -9 2 -12 -5 -9 -5 4 -17 1 -26 -7 -15 -12 -15 -11
-2 10 16 26 25 28 33 6z"/>
<path d="M1821 4004 c0 -11 3 -14 6 -6 3 7 2 16 -1 19 -3 4 -6 -2 -5 -13z"/>
<path d="M1233 3293 c15 -2 39 -2 55 0 15 2 2 4 -28 4 -30 0 -43 -2 -27 -4z"/>
</g>
</svg>
